<svg width="123" height="20" viewBox="0 0 123 20" fill="none" xmlns="http://www.w3.org/2000/svg">
<path d="M18.3159 16L23.3559 4.8H25.4039L30.4599 16H28.2839L23.9479 5.904H24.7799L20.4599 16H18.3159ZM20.6359 13.408L21.1959 11.776H27.2439L27.8039 13.408H20.6359ZM31.9534 16V7.456H36.1294C37.164 7.456 37.9747 7.648 38.5614 8.032C39.1587 8.416 39.4574 8.96 39.4574 9.664C39.4574 10.3573 39.18 10.9013 38.6254 11.296C38.0707 11.68 37.3347 11.872 36.4174 11.872L36.6574 11.376C37.692 11.376 38.46 11.568 38.9614 11.952C39.4734 12.3253 39.7294 12.8747 39.7294 13.6C39.7294 14.3573 39.4467 14.9493 38.8814 15.376C38.316 15.792 37.4574 16 36.3054 16H31.9534ZM33.8574 14.544H36.1454C36.6894 14.544 37.1 14.4587 37.3774 14.288C37.6547 14.1067 37.7934 13.8347 37.7934 13.472C37.7934 13.088 37.6654 12.8053 37.4094 12.624C37.1534 12.4427 36.7534 12.352 36.2094 12.352H33.8574V14.544ZM33.8574 11.024H35.9534C36.4654 11.024 36.8494 10.9333 37.1054 10.752C37.372 10.56 37.5054 10.2933 37.5054 9.952C37.5054 9.6 37.372 9.33867 37.1054 9.168C36.8494 8.99733 36.4654 8.912 35.9534 8.912H33.8574V11.024ZM43.6356 16V8.672L44.0996 9.152H40.6276V7.456H48.6276V9.152H45.1716L45.6356 8.672V16H43.6356ZM53.5114 16.112C52.6367 16.112 51.858 15.9253 51.1754 15.552C50.4927 15.168 49.954 14.6453 49.5594 13.984C49.1647 13.3227 48.9674 12.5707 48.9674 11.728C48.9674 10.8747 49.1647 10.1227 49.5594 9.472C49.954 8.81067 50.4927 8.29333 51.1754 7.92C51.858 7.54667 52.6367 7.36 53.5114 7.36C54.3967 7.36 55.1807 7.54667 55.8634 7.92C56.5567 8.29333 57.0954 8.80533 57.4794 9.456C57.874 10.1067 58.0714 10.864 58.0714 11.728C58.0714 12.5707 57.874 13.3227 57.4794 13.984C57.0954 14.6453 56.5567 15.168 55.8634 15.552C55.1807 15.9253 54.3967 16.112 53.5114 16.112ZM53.5114 14.4C54.002 14.4 54.4394 14.2933 54.8234 14.08C55.2074 13.8667 55.506 13.5573 55.7194 13.152C55.9434 12.7467 56.0554 12.272 56.0554 11.728C56.0554 11.1733 55.9434 10.6987 55.7194 10.304C55.506 9.89867 55.2074 9.58933 54.8234 9.376C54.4394 9.16267 54.0074 9.056 53.5274 9.056C53.0367 9.056 52.5994 9.16267 52.2154 9.376C51.842 9.58933 51.5434 9.89867 51.3194 10.304C51.0954 10.6987 50.9834 11.1733 50.9834 11.728C50.9834 12.272 51.0954 12.7467 51.3194 13.152C51.5434 13.5573 51.842 13.8667 52.2154 14.08C52.5994 14.2933 53.0314 14.4 53.5114 14.4ZM60.0471 16V7.456H68.2391V16H66.2551V8.688L66.7191 9.152H61.5831L62.0471 8.688V16H60.0471ZM74.7458 16.112C73.8711 16.112 73.0924 15.9253 72.4098 15.552C71.7271 15.168 71.1884 14.6453 70.7938 13.984C70.3991 13.3227 70.2018 12.5707 70.2018 11.728C70.2018 10.8747 70.3991 10.1227 70.7938 9.472C71.1884 8.81067 71.7271 8.29333 72.4098 7.92C73.0924 7.54667 73.8711 7.36 74.7458 7.36C75.6311 7.36 76.4151 7.54667 77.0978 7.92C77.7911 8.29333 78.3298 8.80533 78.7138 9.456C79.1084 10.1067 79.3058 10.864 79.3058 11.728C79.3058 12.5707 79.1084 13.3227 78.7138 13.984C78.3298 14.6453 77.7911 15.168 77.0978 15.552C76.4151 15.9253 75.6311 16.112 74.7458 16.112ZM74.7458 14.4C75.2364 14.4 75.6738 14.2933 76.0578 14.08C76.4418 13.8667 76.7404 13.5573 76.9538 13.152C77.1778 12.7467 77.2898 12.272 77.2898 11.728C77.2898 11.1733 77.1778 10.6987 76.9538 10.304C76.7404 9.89867 76.4418 9.58933 76.0578 9.376C75.6738 9.16267 75.2418 9.056 74.7618 9.056C74.2711 9.056 73.8338 9.16267 73.4498 9.376C73.0764 9.58933 72.7778 9.89867 72.5538 10.304C72.3298 10.6987 72.2178 11.1733 72.2178 11.728C72.2178 12.272 72.3298 12.7467 72.5538 13.152C72.7778 13.5573 73.0764 13.8667 73.4498 14.08C73.8338 14.2933 74.2658 14.4 74.7458 14.4ZM87.0438 15.072V9.152H83.7638L83.7158 10.528C83.6944 11.0187 83.6624 11.4933 83.6198 11.952C83.5771 12.4 83.5078 12.816 83.4118 13.2C83.3158 13.5733 83.1771 13.8827 82.9958 14.128C82.8144 14.3733 82.5744 14.5333 82.2758 14.608L80.2918 14.304C80.6118 14.304 80.8678 14.2027 81.0598 14C81.2624 13.7867 81.4171 13.4987 81.5238 13.136C81.6411 12.7627 81.7264 12.3413 81.7798 11.872C81.8331 11.392 81.8704 10.896 81.8918 10.384L82.0038 7.456H89.0438V15.072H87.0438ZM79.9878 17.904V14.304H90.3078V17.904H88.4358V16H81.8438V17.904H79.9878ZM96.174 16.16C95.47 16.16 94.8407 16.0533 94.286 15.84C93.7313 15.6267 93.2513 15.3013 92.846 14.864C92.4513 14.416 92.1473 13.8507 91.934 13.168C91.7207 12.4853 91.614 11.6747 91.614 10.736C91.614 10.0533 91.6727 9.42933 91.79 8.864C91.9073 8.29867 92.0833 7.792 92.318 7.344C92.5527 6.88533 92.846 6.48 93.198 6.128C93.5607 5.776 93.982 5.48267 94.462 5.248C94.942 5.01333 95.486 4.832 96.094 4.704L100.062 3.856L100.35 5.648L96.75 6.384C96.5473 6.42667 96.302 6.49067 96.014 6.576C95.7367 6.65067 95.4487 6.768 95.15 6.928C94.862 7.07733 94.59 7.296 94.334 7.584C94.0887 7.86133 93.886 8.224 93.726 8.672C93.5767 9.10933 93.502 9.65867 93.502 10.32C93.502 10.5227 93.5073 10.6773 93.518 10.784C93.5393 10.88 93.5553 10.9867 93.566 11.104C93.5873 11.2107 93.598 11.3707 93.598 11.584L92.846 10.8C93.0593 10.256 93.3527 9.792 93.726 9.408C94.11 9.01333 94.5527 8.71467 95.054 8.512C95.566 8.29867 96.1207 8.192 96.718 8.192C97.518 8.192 98.2273 8.35733 98.846 8.688C99.4647 9.01867 99.95 9.48267 100.302 10.08C100.654 10.6773 100.83 11.3547 100.83 12.112C100.83 12.9013 100.638 13.6 100.254 14.208C99.87 14.816 99.326 15.296 98.622 15.648C97.9287 15.9893 97.1127 16.16 96.174 16.16ZM96.334 14.544C96.814 14.544 97.2353 14.4427 97.598 14.24C97.9713 14.0267 98.2593 13.7387 98.462 13.376C98.6753 13.0133 98.782 12.608 98.782 12.16C98.782 11.712 98.6753 11.3227 98.462 10.992C98.2593 10.6507 97.9713 10.3787 97.598 10.176C97.2353 9.97333 96.8033 9.872 96.302 9.872C95.822 9.872 95.39 9.968 95.006 10.16C94.6327 10.352 94.3393 10.6187 94.126 10.96C93.9233 11.2907 93.822 11.6747 93.822 12.112C93.822 12.56 93.9287 12.9707 94.142 13.344C94.3553 13.7173 94.6487 14.0107 95.022 14.224C95.406 14.4373 95.8433 14.544 96.334 14.544ZM106.574 16.112C105.699 16.112 104.921 15.9253 104.238 15.552C103.555 15.168 103.017 14.6453 102.622 13.984C102.227 13.3227 102.03 12.5707 102.03 11.728C102.03 10.8747 102.227 10.1227 102.622 9.472C103.017 8.81067 103.555 8.29333 104.238 7.92C104.921 7.54667 105.699 7.36 106.574 7.36C107.459 7.36 108.243 7.54667 108.926 7.92C109.619 8.29333 110.158 8.80533 110.542 9.456C110.937 10.1067 111.134 10.864 111.134 11.728C111.134 12.5707 110.937 13.3227 110.542 13.984C110.158 14.6453 109.619 15.168 108.926 15.552C108.243 15.9253 107.459 16.112 106.574 16.112ZM106.574 14.4C107.065 14.4 107.502 14.2933 107.886 14.08C108.27 13.8667 108.569 13.5573 108.782 13.152C109.006 12.7467 109.118 12.272 109.118 11.728C109.118 11.1733 109.006 10.6987 108.782 10.304C108.569 9.89867 108.27 9.58933 107.886 9.376C107.502 9.16267 107.07 9.056 106.59 9.056C106.099 9.056 105.662 9.16267 105.278 9.376C104.905 9.58933 104.606 9.89867 104.382 10.304C104.158 10.6987 104.046 11.1733 104.046 11.728C104.046 12.272 104.158 12.7467 104.382 13.152C104.606 13.5573 104.905 13.8667 105.278 14.08C105.662 14.2933 106.094 14.4 106.574 14.4ZM117.846 16.112C117.152 16.112 116.518 15.952 115.942 15.632C115.376 15.312 114.923 14.832 114.582 14.192C114.251 13.5413 114.086 12.72 114.086 11.728C114.086 10.7253 114.246 9.904 114.566 9.264C114.896 8.624 115.344 8.14933 115.91 7.84C116.475 7.52 117.12 7.36 117.846 7.36C118.688 7.36 119.43 7.54133 120.07 7.904C120.72 8.26667 121.232 8.77333 121.606 9.424C121.99 10.0747 122.182 10.8427 122.182 11.728C122.182 12.6133 121.99 13.3867 121.606 14.048C121.232 14.6987 120.72 15.2053 120.07 15.568C119.43 15.9307 118.688 16.112 117.846 16.112ZM113.11 19.104V7.456H115.014V9.472L114.95 11.744L115.11 14.016V19.104H113.11ZM117.622 14.4C118.102 14.4 118.528 14.2933 118.902 14.08C119.286 13.8667 119.59 13.5573 119.814 13.152C120.038 12.7467 120.15 12.272 120.15 11.728C120.15 11.1733 120.038 10.6987 119.814 10.304C119.59 9.89867 119.286 9.58933 118.902 9.376C118.528 9.16267 118.102 9.056 117.622 9.056C117.142 9.056 116.71 9.16267 116.326 9.376C115.942 9.58933 115.638 9.89867 115.414 10.304C115.19 10.6987 115.078 11.1733 115.078 11.728C115.078 12.272 115.19 12.7467 115.414 13.152C115.638 13.5573 115.942 13.8667 116.326 14.08C116.71 14.2933 117.142 14.4 117.622 14.4Z" fill="black"/>
<path d="M8 3.25C7.58333 5.75 5.6 10.8 1 11C5.6 11.2 7.58333 16.25 8 18.75C8.41667 16.25 10.4 11.2 15 11M8 3C8.41667 5.5 10.4 10.55 15 10.75" stroke="black" stroke-width="2"/>
</svg>
